<svg xmlns="http://www.w3.org/2000/svg" viewBox="0 0 24 24" fill="none">
  <!-- Outer ring -->
  <circle cx="12" cy="12" r="11" stroke="#2088FF" stroke-width="1.5" fill="none"/>
  <!-- Center gear/cog body -->
  <circle cx="12" cy="12" r="3.5" fill="#2088FF"/>
  <!-- Gear teeth -->
  <rect x="11" y="1.5" width="2" height="3" rx="1" fill="#2088FF"/>
  <rect x="11" y="19.5" width="2" height="3" rx="1" fill="#2088FF"/>
  <rect x="1.5" y="11" width="3" height="2" rx="1" fill="#2088FF"/>
  <rect x="19.5" y="11" width="3" height="2" rx="1" fill="#2088FF"/>
  <!-- Diagonal gear teeth -->
  <rect x="4.22" y="4.22" width="2" height="3" rx="1" fill="#2088FF" transform="rotate(45 5.22 5.72)"/>
  <rect x="17.78" y="4.22" width="2" height="3" rx="1" fill="#2088FF" transform="rotate(-45 18.78 5.72)"/>
  <rect x="4.22" y="16.78" width="2" height="3" rx="1" fill="#2088FF" transform="rotate(-45 5.22 18.28)"/>
  <rect x="17.78" y="16.78" width="2" height="3" rx="1" fill="#2088FF" transform="rotate(45 18.78 18.28)"/>
  <!-- Play arrow inside center -->
  <path d="M10.5 10.2l3.5 1.8-3.5 1.8V10.2z" fill="white"/>
</svg>
